<?xml version="1.0" encoding="UTF-8"?>
<svg xmlns="http://www.w3.org/2000/svg" xmlns:xlink="http://www.w3.org/1999/xlink" width="192px" height="192px" viewBox="0 0 192 192" version="1.1">
<g id="surface1">
<path style=" stroke:none;fill-rule:nonzero;fill:rgb(82.745098%,11.764706%,26.666667%);fill-opacity:1;" d="M 25.339844 53.574219 C 15.636719 53.574219 7.761719 72.339844 7.761719 95.457031 C 7.761719 118.570312 15.636719 137.335938 25.339844 137.335938 C 35.042969 137.335938 42.921875 118.570312 42.921875 95.457031 C 42.921875 72.339844 35.066406 53.574219 25.339844 53.574219 Z M 25.339844 112.859375 C 21.300781 112.859375 18.035156 105.082031 18.035156 95.457031 C 18.035156 85.828125 21.300781 78.050781 25.339844 78.050781 C 29.382812 78.050781 32.648438 85.828125 32.648438 95.457031 C 32.648438 105.082031 29.382812 112.859375 25.339844 112.859375 Z M 25.339844 112.859375 "/>
<path style=" stroke:none;fill-rule:nonzero;fill:rgb(11.372549%,11.372549%,11.372549%);fill-opacity:1;" d="M 46.847656 59.015625 C 46.847656 59.015625 53.808594 59.449219 54.128906 59.449219 C 54.449219 59.449219 65.886719 93.878906 65.886719 93.878906 L 65.933594 77.5625 L 65.933594 59.015625 L 75.042969 59.015625 L 75.042969 133.585938 L 67.074219 133.746094 L 56.160156 101.765625 L 56.160156 133.476562 L 46.824219 133.585938 L 46.824219 59.015625 Z M 46.847656 59.015625 "/>
<path style=" stroke:none;fill-rule:nonzero;fill:rgb(11.372549%,11.372549%,11.372549%);fill-opacity:1;" d="M 122.1875 59.015625 C 122.1875 59.015625 129.148438 59.449219 129.46875 59.449219 C 129.765625 59.449219 141.226562 93.878906 141.226562 93.878906 L 141.273438 77.5625 L 141.273438 59.015625 L 150.382812 59.015625 L 150.382812 133.585938 L 142.414062 133.746094 L 131.5 101.765625 L 131.5 133.476562 L 122.164062 133.585938 L 122.164062 59.015625 Z M 122.1875 59.015625 "/>
<path style=" stroke:none;fill-rule:nonzero;fill:rgb(11.372549%,11.372549%,11.372549%);fill-opacity:1;" d="M 80.066406 59.015625 L 89.722656 59.015625 L 89.722656 114.492188 L 103.578125 114.492188 L 103.578125 133.585938 L 80.066406 133.585938 Z M 80.066406 59.015625 "/>
<path style=" stroke:none;fill-rule:nonzero;fill:rgb(11.372549%,11.372549%,11.372549%);fill-opacity:1;" d="M 107.6875 59.015625 L 117.324219 59.015625 L 117.324219 133.585938 L 107.6875 133.585938 Z M 107.6875 59.015625 "/>
<path style=" stroke:none;fill-rule:nonzero;fill:rgb(11.372549%,11.372549%,11.372549%);fill-opacity:1;" d="M 155.539062 59.015625 L 181.453125 59.015625 L 181.453125 78.105469 L 165.199219 78.105469 L 165.199219 87.40625 L 179.96875 87.40625 L 179.96875 105.136719 L 165.199219 105.136719 L 165.199219 114.4375 L 181.933594 114.4375 L 181.933594 133.53125 L 155.539062 133.53125 Z M 155.539062 59.015625 "/>
<path style=" stroke:none;fill-rule:nonzero;fill:rgb(82.745098%,11.764706%,26.666667%);fill-opacity:1;" d="M 4.148438 42.589844 L 30.867188 6.75 L 35.46875 26.230469 L 8.75 62.070312 Z M 4.148438 42.589844 "/>
<path style=" stroke:none;fill-rule:nonzero;fill:rgb(11.372549%,11.372549%,11.372549%);fill-opacity:1;" d="M 10.683594 157.734375 L 16.074219 157.734375 L 16.074219 159.367188 L 11.507812 159.367188 L 11.507812 166.652344 L 15.570312 166.652344 L 15.570312 168.285156 L 11.484375 168.285156 L 11.484375 177.914062 L 10.683594 177.914062 Z M 10.683594 157.734375 "/>
<path style=" stroke:none;fill-rule:nonzero;fill:rgb(11.372549%,11.372549%,11.372549%);fill-opacity:1;" d="M 36.027344 157.296875 C 38.675781 157.296875 40.019531 162.300781 40.019531 167.796875 C 40.019531 173.289062 38.695312 178.292969 36.027344 178.292969 C 33.355469 178.292969 32.03125 173.289062 32.03125 167.796875 C 32.03125 162.300781 33.355469 157.296875 36.027344 157.296875 Z M 36.027344 176.714844 C 38.261719 176.714844 39.199219 172.257812 39.199219 167.851562 C 39.199219 163.445312 38.238281 158.984375 36.027344 158.984375 C 33.789062 158.984375 32.828125 163.445312 32.828125 167.851562 C 32.828125 172.257812 33.789062 176.714844 36.027344 176.714844 Z M 36.027344 176.714844 "/>
<path style=" stroke:none;fill-rule:nonzero;fill:rgb(11.372549%,11.372549%,11.372549%);fill-opacity:1;" d="M 56.6875 157.734375 L 60.566406 157.734375 C 61.960938 157.734375 63.148438 159.367188 63.148438 163.007812 C 63.148438 165.566406 62.601562 167.632812 61.503906 168.175781 L 61.503906 168.230469 C 62.601562 168.558594 62.917969 170.40625 62.988281 172.800781 C 63.035156 174.160156 63.035156 176.933594 63.375 177.96875 L 62.484375 177.96875 C 62.28125 177.152344 62.28125 175.683594 62.257812 174.8125 C 62.1875 171.984375 62.097656 168.828125 60.566406 168.992188 L 57.507812 168.992188 L 57.507812 177.96875 L 56.710938 177.96875 L 56.710938 157.734375 Z M 57.507812 167.304688 L 60.523438 167.304688 C 61.503906 167.304688 62.347656 165.839844 62.347656 163.390625 C 62.347656 160.941406 61.730469 159.367188 60.523438 159.367188 L 57.507812 159.367188 Z M 57.507812 167.304688 "/>
<path style=" stroke:none;fill-rule:nonzero;fill:rgb(11.372549%,11.372549%,11.372549%);fill-opacity:1;" d="M 80.019531 157.734375 L 81.207031 157.734375 L 84.128906 175.464844 L 87.050781 157.734375 L 88.238281 157.734375 L 88.238281 177.914062 L 87.4375 177.914062 L 87.4375 160.453125 L 87.414062 160.453125 L 84.515625 177.914062 L 83.761719 177.914062 L 80.839844 160.453125 L 80.816406 160.453125 L 80.816406 177.914062 L 80.019531 177.914062 Z M 80.019531 157.734375 "/>
<path style=" stroke:none;fill-rule:nonzero;fill:rgb(11.372549%,11.372549%,11.372549%);fill-opacity:1;" d="M 107.824219 157.734375 L 108.738281 157.734375 L 112.074219 177.914062 L 111.183594 177.914062 L 110.15625 171.65625 L 106.296875 171.65625 L 105.269531 177.914062 L 104.402344 177.914062 Z M 106.546875 170.027344 L 109.878906 170.027344 L 108.238281 159.691406 Z M 106.546875 170.027344 "/>
<path style=" stroke:none;fill-rule:nonzero;fill:rgb(11.372549%,11.372549%,11.372549%);fill-opacity:1;" d="M 128.234375 157.734375 L 132.003906 157.734375 C 133.53125 157.734375 134.515625 159.855469 134.515625 163.5 C 134.515625 167.144531 133.507812 169.265625 132.003906 169.265625 L 129.058594 169.265625 L 129.058594 177.914062 L 128.257812 177.914062 L 128.257812 157.734375 Z M 129.058594 167.632812 L 131.84375 167.632812 C 132.960938 167.632812 133.738281 166.273438 133.738281 163.5 C 133.738281 160.726562 132.960938 159.367188 131.84375 159.367188 L 129.058594 159.367188 Z M 129.058594 167.632812 "/>
<path style=" stroke:none;fill-rule:nonzero;fill:rgb(11.372549%,11.372549%,11.372549%);fill-opacity:1;" d="M 151.15625 157.734375 L 155.039062 157.734375 C 156.429688 157.734375 157.617188 159.367188 157.617188 163.007812 C 157.617188 165.566406 157.070312 167.632812 155.972656 168.175781 L 155.972656 168.230469 C 157.070312 168.558594 157.390625 170.40625 157.457031 172.800781 C 157.503906 174.160156 157.503906 176.933594 157.847656 177.96875 L 156.957031 177.96875 C 156.75 177.152344 156.75 175.683594 156.726562 174.8125 C 156.660156 171.984375 156.566406 168.828125 155.039062 168.992188 L 151.980469 168.992188 L 151.980469 177.96875 L 151.179688 177.96875 L 151.179688 157.734375 Z M 151.957031 167.304688 L 154.96875 167.304688 C 155.953125 167.304688 156.796875 165.839844 156.796875 163.390625 C 156.796875 160.941406 156.179688 159.367188 154.96875 159.367188 L 151.957031 159.367188 Z M 151.957031 167.304688 "/>
<path style=" stroke:none;fill-rule:nonzero;fill:rgb(11.372549%,11.372549%,11.372549%);fill-opacity:1;" d="M 178.027344 157.296875 C 180.675781 157.296875 182.023438 162.300781 182.023438 167.796875 C 182.023438 173.289062 180.699219 178.292969 178.027344 178.292969 C 175.355469 178.292969 174.03125 173.289062 174.03125 167.796875 C 174.03125 162.300781 175.355469 157.296875 178.027344 157.296875 Z M 178.027344 176.714844 C 180.265625 176.714844 181.203125 172.257812 181.203125 167.851562 C 181.203125 163.445312 180.242188 158.984375 178.027344 158.984375 C 175.789062 158.984375 174.832031 163.445312 174.832031 167.851562 C 174.832031 172.257812 175.789062 176.714844 178.027344 176.714844 Z M 178.027344 176.714844 "/>
</g>
</svg>
